<svg xmlns="http://www.w3.org/2000/svg" width="512" height="512" viewBox="0 0 512 512" style="height: 512px; width: 512px;"><defs><filter id="shadow-1" height="300%" width="300%" x="-100%" y="-100%"><feFlood flood-color="rgba(0, 0, 0, 1)" result="flood"></feFlood><feComposite in="flood" in2="SourceGraphic" operator="atop" result="composite"></feComposite><feGaussianBlur in="composite" stdDeviation="4" result="blur"></feGaussianBlur><feOffset dx="8" dy="8" result="offset"></feOffset><feComposite in="SourceGraphic" in2="offset" operator="over"></feComposite></filter></defs><g class="" transform="translate(0,0)" style=""><path d="M247 28v80h18V28zm35 0v64l80-32zm-26 96c-48 48-144 112-192 128 0 64-16 208-32 240h160c16-16 64-144 64-192 0 48 48 176 64 192h160c-16-32-32-176-32-240-48-16-144-80-192-128zM112 300h80v80h-80z" fill="#ffffff" fill-opacity="1" stroke="#010000" stroke-opacity="1" stroke-width="0.5" filter="url(#shadow-1)"></path></g></svg>