<svg xmlns="http://www.w3.org/2000/svg" width="512" height="512" viewBox="0 0 512 512" style="height: 512px; width: 512px;"><defs><filter id="shadow-1" height="300%" width="300%" x="-100%" y="-100%"><feFlood flood-color="rgba(0, 0, 0, 1)" result="flood"></feFlood><feComposite in="flood" in2="SourceGraphic" operator="atop" result="composite"></feComposite><feGaussianBlur in="composite" stdDeviation="4" result="blur"></feGaussianBlur><feOffset dx="8" dy="8" result="offset"></feOffset><feComposite in="SourceGraphic" in2="offset" operator="over"></feComposite></filter></defs><g class="" transform="translate(0,0)" style=""><path d="M329.8 235.69l62.83-82.71 42.86 32.56-62.83 82.75zm-12.86-9.53l66.81-88-45-34.15-66.81 88zm-27.48-97.78l-19.3 39.57 57-75-42.51-32.3-36.24 47.71zm-20.74-73.24l-46.64-35.43-42 55.31 53.67 26.17zm107 235.52l-139-102.71-9.92.91 4.56 2 62.16 138.43-16.52 2.25-57.68-128.5-40-17.7-4-30.84 39.41 19.42 36.36-3.33 17-34.83-110.9-54.09-80.68 112.51L177.6 346.67l-22.7 145.62H341V372.62l35.29-48.93L387 275.77z" fill="#ffffff" fill-opacity="1" stroke="#010000" stroke-opacity="1" stroke-width="0.5" filter="url(#shadow-1)"></path></g></svg>