<svg xmlns="http://www.w3.org/2000/svg" width="512" height="512" viewBox="0 0 512 512" style="height: 512px; width: 512px;"><defs><filter id="shadow-1" height="300%" width="300%" x="-100%" y="-100%"><feFlood flood-color="rgba(0, 0, 0, 1)" result="flood"></feFlood><feComposite in="flood" in2="SourceGraphic" operator="atop" result="composite"></feComposite><feGaussianBlur in="composite" stdDeviation="4" result="blur"></feGaussianBlur><feOffset dx="8" dy="8" result="offset"></feOffset><feComposite in="SourceGraphic" in2="offset" operator="over"></feComposite></filter></defs><g class="" transform="translate(0,0)" style=""><path d="M255 471L91.7 387V41h328.6v346zm-147.3-93.74L255 453l149.3-75.76V57H107.7v320.26zm187.61-168.34l-14.5-46 38.8-28.73-48.27-.43L256 87.94l-15.33 45.78-48.27.43 38.8 28.73-14.5 46 39.31-28zM254.13 311.5l98.27-49.89v-49.9l-98.14 49.82-94.66-48.69v50zm.13 32.66l-94.66-48.69v50l94.54 48.62 98.27-49.89v-49.9z" fill="#ffffff" fill-opacity="1" stroke="#010000" stroke-opacity="1" stroke-width="0.5" filter="url(#shadow-1)"></path></g></svg>